<svg height="640pt" preserveAspectRatio="xMidYMid meet" viewBox="0 0 1280 640" width="1280pt" xmlns="http://www.w3.org/2000/svg"><g transform="matrix(.1 0 0 -.1 0 640)"><path d="m1095 4081c-202-36-476-178-596-309-73-80-142-188-181-285-31-79-33-87-32-217 0-120 3-143 27-213 83-239 216-405 425-530 149-90 292-140 511-179 112-20 157-23 396-22l270 1 135 36c74 20 162 44 195 53l61 17 39-26c66-44 161-77 263-92 129-20 337-19 412 0 54 14 65 14 142-4 158-37 234-44 376-38 280 12 577 116 778 273 32 24 65 44 75 44 9 0 57-18 106-41 349-161 574-219 846-219 213 0 369 38 517 126 185 110 298 251 360 450 30 98 32 274 3 360-69 201-209 380-391 498-152 99-308 154-519 181-299 39-571 12-860-84-206-69-284-104-457-205l-149-88-41 15c-273 101-558 102-789 2-125-54-282-179-337-267-18-28-37-48-48-48-25 0-152-62-220-109-65-44-148-130-199-207-64-97-78-251-32-350 12-25 19-47 16-50-12-12-178-54-307-79-272-50-415-56-606-25-178 29-329 89-499 197-226 144-383 405-388 643-2 97 20 167 81 261 125 190 321 323 582 395 96 27 119 29 270 29 175 0 238-10 405-62 178-56 286-134 375-270 79-119 87-257 22-360-31-50-148-150-210-182-147-75-318-108-496-98-216 13-397 101-455 221-27 54-27 136-2 193 35 76 147 141 291 169 90 17 99 17 194 1 104-18 182-52 239-105 31-30 33-42 12-82-30-58-144-100-272-100h-54l3-32 3-33h120c147 1 208 19 270 79 67 65 72 145 15 225-56 77-180 136-340 161-316 49-596-104-617-338-14-150 92-319 261-416 45-27 199-80 258-90 68-12 222-8 320 8 179 29 325 99 449 214 135 126 169 199 169 366-1 158-66 296-198 416-111 102-312 191-506 225-121 21-361 19-491-4zm4246-287c205-25 421-114 539-222 66-59 144-158 167-211 51-120 75-208 75-281 1-226-141-444-352-542-202-95-372-122-591-94-162 20-233 41-452 134-92 40-172 72-177 72-6 0-10 6-10 14s39 35 88 61c48 26 128 72 178 102l91 54 69-32c196-88 442-101 588-29 96 47 166 150 166 247 0 179-177 345-445 416-66 18-107 21-235 21-231-1-355-32-582-144l-107-52-33 23c-18 13-77 46-131 74-55 28-99 55-100 60 0 6 17 17 39 25s75 36 119 61c230 133 472 221 713 259 69 10 225 4 383-16zm-1776-265c33-6 75-17 94-25 27-11 31-17 22-28-7-8-80-63-163-121l-151-107-78 21c-73 20-165 32-371 47-43 3-78 9-78 13 0 10 142 102 205 134 151 74 337 98 520 66zm536-195c60-31 116-65 125-75 15-17 13-20-32-51-26-18-91-66-144-106l-97-72-84 39c-46 21-112 49-147 61-44 16-62 28-60 38 3 18 295 222 316 222 8 0 63-25 123-56zm1229 10c83-26 178-78 228-127 39-38 68-119 58-168-8-44-57-104-104-128-47-23-150-41-233-40-81 1-224 38-224 59 0 9 34 26 95 47 74 25 112 32 172 33 72 0 79 2 94 25 16 24 16 27-2 40-30 23-83 35-154 35-73 0-261-37-359-70-35-11-70-19-77-16-8 3-58 31-111 63s-112 67-131 78-34 25-34 30c0 14 248 113 341 136 170 43 311 44 441 3zm-2270-149c146-21 162-25 158-41-3-13-463-344-479-344-12 0-20 43-26 150-4 82-2 119 11 162l16 57 53 10c117 23 140 24 267 6zm1457-107c44-29 102-65 127-80s46-32 46-37c0-14-292-222-305-218-5 3-63 39-128 81-73 48-117 83-115 92 2 10 281 214 293 214 1 0 38-24 82-52zm-1932-80c0-131 5-155 42-198 26-32 26-33 8-46-11-8-86-48-168-90-163-82-166-82-188-17-41 126 55 317 213 422 92 62 93 61 93-71zm1058 26c62-25 133-53 160-60 27-9 47-21 47-29 0-7-117-94-259-192-278-191-468-298-510-288-51 13-265 170-255 187 3 5 54 33 112 63 59 29 211 123 337 209 127 85 236 155 243 155 7 1 64-20 125-45zm514-266c79-40 143-78 143-85 0-12-50-40-286-164-175-92-385-141-559-132-85 5-115 11-115 22 0 5 47 35 105 66 107 57 291 176 464 298 51 37 96 67 100 67 3 0 70-32 148-72zm-1385-231c29-29 71-66 93-84 22-17 36-34 32-39-14-14-139-17-222-4-88 13-196 49-202 66-3 10 206 111 234 113 7 1 36-23 65-52z"/><path d="m11170 4085c-181-30-395-126-502-224-135-124-198-260-198-428 0-157 35-230 171-356 136-127 290-194 504-220 152-19 270-8 399 37 118 41 183 84 270 176 82 88 110 153 110 265 1 110-30 173-122 250-143 119-359 154-586 96-105-28-162-57-217-112-86-84-91-181-14-255 62-60 123-78 270-79h120l3 33 3 32h-60c-77 0-156 17-204 43-39 22-77 71-77 100 0 46 137 122 259 144 86 15 98 15 189-1 212-37 322-128 325-269 3-164-206-298-490-314-238-13-450 51-603 182-83 71-115 120-128 195-23 128 16 233 136 361 94 100 222 161 457 215 62 15 118 19 250 19 166-1 173-2 292-38 206-62 337-140 469-280 125-133 181-261 168-387-30-299-212-543-524-700-233-117-477-160-745-130-173 20-510 91-532 114-3 3 4 25 15 49 43 92 37 235-15 325-82 144-287 308-421 337-24 5-40 18-59 48-14 23-51 66-82 95-132 125-260 194-431 233-82 18-114 20-235 15-152-6-229-20-349-61l-78-27-81 50c-165 100-225 131-324 171-305 121-557 176-803 174-257-3-494-50-662-133-235-115-418-322-501-564-29-86-27-262 3-360 62-199 175-340 360-450 148-88 304-126 516-126 248 0 461 51 756 180 101 44 191 80 199 80 9 0 41-20 73-44 130-102 299-181 491-230 240-62 434-62 676-1 60 15 70 15 126 1 78-20 284-21 415-1 102 15 197 48 263 92 36 24 42 25 80 14 22-6 110-30 195-53l155-42h270c241-1 284 2 400 22 213 39 359 91 512 183 206 125 338 289 420 526 24 69 27 93 27 213 1 130 0 138-32 218-43 106-118 220-202 302-127 127-387 258-580 291-124 22-374 24-490 4zm-3375-275c240-35 502-130 730-264 41-25 94-51 116-57 22-7 38-17 36-22-1-5-49-34-106-63-56-30-116-63-133-75l-30-22-95 47c-215 106-338 141-543 152-148 8-268-10-389-56-259-100-397-310-319-482 29-62 84-119 144-148 51-25 177-50 252-50 83 0 231 34 323 74l80 35 157-89c86-49 170-96 186-105 16-8 26-18 23-22-11-10-309-134-397-164-223-78-492-86-689-23-148 49-235 98-321 184-165 165-221 372-156 570 47 141 91 215 186 310 178 179 427 262 835 278 22 1 72-3 110-8zm1675-276c77-8 175-36 245-71 64-32 205-124 205-134 0-4-39-10-87-13-177-12-282-26-360-47l-81-22-161 114c-89 63-161 119-161 125 0 25 228 68 310 58 14-2 54-6 90-10zm-525-248c83-57 151-110 153-118 2-10-17-22-60-38-35-12-101-40-147-61l-84-39-97 72c-53 40-118 88-145 106l-48 34 20 20c24 23 221 127 243 128 9 0 83-47 165-104zm-1120 64c121-25 385-124 392-147 2-6-6-15-19-19-13-3-41-19-63-34-22-14-78-48-124-74l-84-48-86 26c-240 74-424 85-495 31-18-13-18-16-2-40 15-23 22-25 94-25 60-1 98-8 172-33 59-21 95-38 95-47 0-22-147-58-235-59-84 0-179 17-227 42-43 23-92 84-99 126-11 58 19 134 74 181 79 70 203 122 342 144 43 7 171-5 265-24zm2143-161 52-11 16-56c13-44 15-81 11-167-6-123-12-149-35-140-35 13-472 329-472 341 0 14 10 16 150 39 90 15 193 13 278-6zm-1488-156c77-54 140-103 140-109 0-10-212-158-245-170-15-6-307 205-302 219 2 6 50 40 108 75 57 35 111 70 119 78s20 12 28 9c7-2 76-48 152-102zm1766 60c123-68 230-220 241-341 7-80-19-156-51-146-28 9-286 139-311 158-20 14-20 14 1 38 42 46 49 70 51 193 1 66 3 121 3 123 1 7 23-1 66-25zm-756-173c132-88 287-183 345-212s104-56 103-60c-6-17-158-130-215-160l-62-33-118 61c-130 67-633 408-633 429 0 7 28 22 63 34 34 11 105 38 157 60s101 41 108 41 120-72 252-160zm-654-137c165-118 373-253 477-308 59-31 107-61 107-65 0-14-55-21-167-22-177 0-348 45-518 136-55 29-139 74-187 100-49 26-88 52-88 59 0 11 262 154 286 156 6 1 47-25 90-56zm1339-245c55-25 101-51 103-60 3-18-88-50-192-69-71-12-209-9-223 5-4 4 12 24 37 44s65 58 90 85c32 34 51 47 65 43 11-2 65-24 120-48z"/></g></svg>