<svg xmlns="http://www.w3.org/2000/svg" xmlns:xlink="http://www.w3.org/1999/xlink" version="1.1" width="256" height="256" viewBox="0 0 256 256" xml:space="preserve">
<!-- Icon by <a href='https://iconpacks.net/?utm_source=link-attribution&utm_content=1478'>Iconpacks</a> -->
<g style="stroke: none; stroke-width: 0; stroke-dasharray: none; stroke-linecap: butt; stroke-linejoin: miter; stroke-miterlimit: 10; fill: none; fill-rule: nonzero; opacity: 1;" transform="translate(1.4065934065934016 1.4065934065934016) scale(2.81 2.81)" >
	<path d="M 77.474 17.28 L 61.526 1.332 C 60.668 0.473 59.525 0 58.311 0 H 15.742 c -2.508 0 -4.548 2.04 -4.548 4.548 v 80.904 c 0 2.508 2.04 4.548 4.548 4.548 h 58.516 c 2.508 0 4.549 -2.04 4.549 -4.548 V 20.496 C 78.807 19.281 78.333 18.138 77.474 17.28 z M 61.073 5.121 l 12.611 12.612 H 62.35 c -0.704 0 -1.276 -0.573 -1.276 -1.277 V 5.121 z M 15.742 3 h 42.332 v 13.456 c 0 2.358 1.918 4.277 4.276 4.277 h 13.457 v 33.2 H 14.194 V 4.548 C 14.194 3.694 14.888 3 15.742 3 z M 74.258 87 H 15.742 c -0.854 0 -1.548 -0.694 -1.548 -1.548 V 56.934 h 61.613 v 28.519 C 75.807 86.306 75.112 87 74.258 87 z" style="stroke: none; stroke-width: 1; stroke-dasharray: none; stroke-linecap: butt; stroke-linejoin: miter; stroke-miterlimit: 10; fill: rgb(0,0,0); fill-rule: nonzero; opacity: 1;" transform=" matrix(1 0 0 1 0 0) " stroke-linecap="round" />
	<path d="M 33.505 82.319 h -5.947 c -2.391 0 -4.335 -1.945 -4.335 -4.336 v -10.93 c 0 -2.391 1.945 -4.335 4.335 -4.335 h 5.947 c 0.829 0 1.5 0.672 1.5 1.5 s -0.671 1.5 -1.5 1.5 h -5.947 c -0.736 0 -1.335 0.599 -1.335 1.335 v 10.93 c 0 0.736 0.599 1.336 1.335 1.336 h 5.947 c 0.829 0 1.5 0.672 1.5 1.5 S 34.333 82.319 33.505 82.319 z" style="stroke: none; stroke-width: 1; stroke-dasharray: none; stroke-linecap: butt; stroke-linejoin: miter; stroke-miterlimit: 10; fill: rgb(0,0,0); fill-rule: nonzero; opacity: 1;" transform=" matrix(1 0 0 1 0 0) " stroke-linecap="round" />
	<path d="M 46.829 82.319 h -6.334 c -0.829 0 -1.5 -0.672 -1.5 -1.5 s 0.671 -1.5 1.5 -1.5 h 6.334 c 0.522 0 0.948 -0.426 0.948 -0.948 v -3.404 c 0 -0.522 -0.426 -0.948 -0.948 -0.948 h -3.886 c -2.177 0 -3.948 -1.771 -3.948 -3.948 v -3.403 c 0 -2.177 1.771 -3.948 3.948 -3.948 h 4.313 c 0.828 0 1.5 0.672 1.5 1.5 s -0.672 1.5 -1.5 1.5 h -4.313 c -0.523 0 -0.948 0.426 -0.948 0.948 v 3.403 c 0 0.522 0.425 0.948 0.948 0.948 h 3.886 c 2.177 0 3.948 1.771 3.948 3.948 v 3.404 C 50.777 80.548 49.006 82.319 46.829 82.319 z" style="stroke: none; stroke-width: 1; stroke-dasharray: none; stroke-linecap: butt; stroke-linejoin: miter; stroke-miterlimit: 10; fill: rgb(0,0,0); fill-rule: nonzero; opacity: 1;" transform=" matrix(1 0 0 1 0 0) " stroke-linecap="round" />
	<path d="M 62.829 82.319 h -6.334 c -0.828 0 -1.5 -0.672 -1.5 -1.5 s 0.672 -1.5 1.5 -1.5 h 6.334 c 0.522 0 0.948 -0.426 0.948 -0.948 v -3.404 c 0 -0.522 -0.426 -0.948 -0.948 -0.948 h -3.886 c -2.177 0 -3.948 -1.771 -3.948 -3.948 v -3.403 c 0 -2.177 1.771 -3.948 3.948 -3.948 h 4.313 c 0.828 0 1.5 0.672 1.5 1.5 s -0.672 1.5 -1.5 1.5 h -4.313 c -0.522 0 -0.948 0.426 -0.948 0.948 v 3.403 c 0 0.522 0.426 0.948 0.948 0.948 h 3.886 c 2.177 0 3.948 1.771 3.948 3.948 v 3.404 C 66.777 80.548 65.006 82.319 62.829 82.319 z" style="stroke: none; stroke-width: 1; stroke-dasharray: none; stroke-linecap: butt; stroke-linejoin: miter; stroke-miterlimit: 10; fill: rgb(0,0,0); fill-rule: nonzero; opacity: 1;" transform=" matrix(1 0 0 1 0 0) " stroke-linecap="round" />
</g>
</svg>